<svg width="26" height="25" viewBox="0 0 26 25" fill="none" xmlns="http://www.w3.org/2000/svg">
<path fill-rule="evenodd" clip-rule="evenodd" d="M13.8005 3.70312C14.2226 3.70312 14.5992 3.96815 14.7419 4.3654L15.2501 5.78099C15.3308 6.0036 15.4874 6.19063 15.6923 6.30921L17.1999 7.17957C17.4046 7.29769 17.6446 7.33952 17.8772 7.29762L19.3578 7.03051C19.7736 6.95491 20.192 7.14871 20.4033 7.51471L21.2036 8.89529C21.4154 9.2603 21.3754 9.71896 21.1035 10.0418L20.1321 11.1902C19.9791 11.3708 19.8951 11.5998 19.895 11.8365V13.5772C19.8951 13.8139 19.9791 14.0429 20.1321 14.2235L21.1035 15.372C21.3754 15.6948 21.4154 16.1535 21.2036 16.5185L20.4033 17.899C20.1922 18.2646 19.7743 18.4584 19.3588 18.3832L17.8782 18.1161C17.6456 18.0742 17.4056 18.1161 17.2009 18.2342L15.6933 19.1045C15.4884 19.2231 15.3318 19.4102 15.2511 19.6328L14.7429 21.0483C14.6001 21.4459 14.223 21.711 13.8005 21.7106H12.1998C11.7777 21.7106 11.4011 21.4456 11.2584 21.0483L10.7502 19.6328C10.6696 19.4104 10.5134 19.2235 10.309 19.1045L8.80042 18.2342C8.59569 18.1161 8.35576 18.0742 8.12314 18.1161L6.64252 18.3832C6.22675 18.4588 5.80832 18.265 5.59709 17.899L4.79675 16.5185C4.58495 16.1535 4.62498 15.6948 4.8968 15.372L5.8682 14.2235C6.02119 14.0429 6.1052 13.8139 6.1053 13.5772V11.8365C6.1052 11.5998 6.02119 11.3708 5.8682 11.1902L4.9068 10.0418C4.63498 9.71896 4.59496 9.2603 4.80676 8.89529L5.60709 7.51471C5.81819 7.1491 6.23609 6.95537 6.65153 7.03051L8.13214 7.29762C8.36476 7.33952 8.6047 7.29769 8.80942 7.17957L10.3181 6.30921C10.5225 6.19025 10.6786 6.00331 10.7592 5.78099L11.2674 4.3654C11.409 3.97124 11.7811 3.70696 12.1998 3.70312H13.8005Z" stroke="#04B1AF" stroke-width="1.5" stroke-linecap="round" stroke-linejoin="round"/>
<circle cx="13.0002" cy="12.7072" r="2.75115" stroke="#04B1AF" stroke-width="1.5" stroke-linecap="round" stroke-linejoin="round"/>
</svg>
